<svg height="300" width="300" xmlns="http://www.w3.org/2000/svg" viewBox="0 0 54 54"><style>.prefix__st0{display:none}.prefix__st1{display:inline}</style><g class="prefix__st0"><path class="prefix__st1" d="M27 9c-7.6 0-13 7.1-13 13s5.4 13 13 13 13-7.1 13-13S34.6 9 27 9zm14.4 22.3s-8.2 10.2-12.2 15.8c-1.5 2.1-2.1 3-4.3 0-4-5.5-12.2-15.8-12.2-15.8h.1c-1.7-2.6-2.7-6-2.7-9.4C10 12.4 17.6 5 27 5s17 7.4 17 16.9c0 3.4-1 6.8-2.6 9.4z"/></g><g class="prefix__st0"><path class="prefix__st1" d="M47 23H7c-1.1 0-2-.9-2-2s.9-2 2-2h40c1.1 0 2 .9 2 2s-.9 2-2 2zM37 11H7c-1.1 0-2-.9-2-2s.9-2 2-2h30c1.1 0 2 .9 2 2s-.9 2-2 2zM7 31h20c1.1 0 2 .9 2 2s-.9 2-2 2H7c-1.1 0-2-.9-2-2s.9-2 2-2zm0 12h36c1.1 0 2 .9 2 2s-.9 2-2 2H7c-1.1 0-2-.9-2-2s.9-2 2-2z"/></g><g class="prefix__st0"><path class="prefix__st1" d="M45 37H9c-2.2 0-4-1.8-4-4V13c0-2.2 1.8-4 4-4h36c2.2 0 4 1.8 4 4v20c0 2.2-1.8 4-4 4zm0-22c0-1.1-.9-2-2-2H11c-1.1 0-2 .9-2 2v16c0 1.1.9 2 2 2h32c1.1 0 2-.9 2-2V15zM17 41h20c1.1 0 2 .9 2 2s-.9 2-2 2H17c-1.1 0-2-.9-2-2s.9-2 2-2z"/></g><g class="prefix__st0"><path class="prefix__st1" d="M47 41c-1.1 0-2-.9-2-2 0-3.3-2.7-6-6-6s-6 2.7-6 6v4c0 1.1-.9 2-2 2s-2-.9-2-2c0-5.5-4.5-10-10-10S9 37.5 9 43c0 1.1-.9 2-2 2s-2-.9-2-2v-.7c0-.4.3-2.1.4-2.4.9-3.9 3.4-7.1 6.8-9C9.1 28.7 7 25.1 7 21c0-6.6 5.4-12 12-12s12 5.4 12 12c0 4.1-2.1 7.7-5.2 9.9 1.7.9 3.1 2.2 4.3 3.7.8-1.5 1.9-2.9 3.3-3.8-1.5-1.5-2.4-3.6-2.4-5.8 0-4.4 3.6-8 8-8s8 3.6 8 8c0 2.2-.9 4.3-2.4 5.7 1.7 1.2 3.1 2.9 3.8 4.9.3.6.5 1.8.6 2.4v1c0 1.1-.9 2-2 2zM27 21c0-4.4-3.6-8-8-8s-8 3.6-8 8 3.6 8 8 8 8-3.6 8-8zm12 0c-2.2 0-4 1.8-4 4s1.8 4 4 4 4-1.8 4-4-1.8-4-4-4z"/></g><g class="prefix__st0"><path class="prefix__st1" d="M45 41H9c-2.2 0-4-1.8-4-4V17c0-2.2 1.8-4 4-4h36c2.2 0 4 1.8 4 4v20c0 2.2-1.8 4-4 4zM22.4 28.1L11.7 37h30.6l-10.7-8.8-2.9 2c-.3.5-.8.7-1.4.8-.8.2-1.7-.1-2.2-.8 0 0 0-.1-.1-.1l-2.6-2zM9 19v15.8l10.4-8.6L9 19zm3.4-2L27 27.1 41.6 17H12.4zM45 19l-10.4 7.1L45 34.8V19z"/></g><g class="prefix__st0"><path class="prefix__st1" d="M45 39H35l-4.5 4.5c-1.9 1.9-5.1 1.9-7 0L18.9 39H9c-2.2 0-4-1.8-4-4V13c0-2.2 1.8-4 4-4h36c2.2 0 4 1.8 4 4v22c0 2.2-1.8 4-4 4zm-24.3-3l4 4c1.3 1.3 3.4 1.3 4.7 0l4-4c1.2-1.2 1.7-1 1.7-1h8c1.1 0 2-.9 2-2V15c0-1.1-.9-2-2-2H11c-1.1 0-2 .9-2 2v18c0 1.1.9 2 2 2h8s.7 0 1.7 1z"/></g><g class="prefix__st0"><path class="prefix__st1" d="M46.4 45.9c.2.3.3.7.3 1 0 1.1-.9 2-2 2-.8 0-1.4-.4-1.8-1-2.7-6-8.8-10.2-15.9-10.2s-13.1 4.2-15.9 10.2c-.4.6-1 1-1.7 1-1.1 0-2-.9-2-2 0-.3.1-.6.2-.9 0-.1 0-.1.1-.2 2.2-4.9 6.1-8.4 11-10.6-4.7-2.9-7.9-8.1-7.9-14C10.6 12.3 18 5 27 5s16.4 7.3 16.4 16.4c0 5.9-3.2 11.1-7.9 14 4.9 2.1 8.7 5.7 10.9 10.5zm-7.1-24.5c0-6.8-5.5-12.3-12.3-12.3s-12.3 5.5-12.3 12.3S20.2 33.7 27 33.7s12.3-5.5 12.3-12.3z"/></g><g class="prefix__st0"><path d="M7 19h5c1.1 0 2-.9 2-2s-.9-2-2-2H7c-1.1 0-2 .9-2 2s.9 2 2 2zm6 18c0-1.1-.9-2-2-2H7c-1.1 0-2 .9-2 2s.9 2 2 2h4c1.1 0 2-.9 2-2zm-4-6h4v-8H9v8zM45 5H13c-2.2 0-4 1.8-4 4v2h4c0-1.1.9-2 2-2h28c1.1 0 2 .9 2 2v32c0 1.1-.9 2-2 2H15c-1.1 0-2-.9-2-2H9v2c0 2.2 1.8 4 4 4h32c2.2 0 4-1.8 4-4V9c0-2.2-1.8-4-4-4zM19 37c0 1.1.9 2 2 2s2-.9 2-2c0-3.3 2.7-6 6-6s6 2.7 6 6c0 1.1.9 2 2 2s2-.9 2-2c0-3.5-1.7-6.5-4.4-8.3 1.5-1.5 2.4-3.5 2.4-5.7 0-4.4-3.6-8-8-8s-8 3.6-8 8c0 2.2.9 4.3 2.4 5.7-2.7 1.8-4.4 4.8-4.4 8.3zm10-18c2.2 0 4 1.8 4 4s-1.8 4-4 4-4-1.8-4-4 1.8-4 4-4z"/></g><g class="prefix__st0"><path class="prefix__st1" d="M49 13.1V43c0 2.2-1.8 4-4 4H9c-2.2 0-4-1.8-4-4V13.1 11c0-1.1.9-2 2-2h4c1.1 0 2 .9 2 2h2V9c0-1.1.9-2 2-2s2 .9 2 2v2h2c0-1.5.9-2 2-2h8c1.1 0 2 .6 2 2h2V9c0-1.1.9-2 2-2s2 .9 2 2v2h2c0-1.1.9-2 2-2h4c1.1 0 2 .9 2 2v2.1c0-.1 0-.1 0 0zM10 15c-.6 0-1 .4-1 1v25c0 1.1.9 2 2 2h32c1.1 0 2-.9 2-2V16c0-.6-.4-1-1-1H10zm29 24h-4c-1.1 0-2-.9-2-2s.9-2 2-2h4c1.1 0 2 .9 2 2s-.9 2-2 2zm0-8h-4c-1.1 0-2-.9-2-2s.9-2 2-2h4c1.1 0 2 .9 2 2s-.9 2-2 2zm0-8h-4c-1.1 0-2-.9-2-2s.9-2 2-2h4c1.1 0 2 .9 2 2s-.9 2-2 2zM29 39h-4c-1.1 0-2-.9-2-2s.9-2 2-2h4c1.1 0 2 .9 2 2s-.9 2-2 2zm0-8h-4c-1.1 0-2-.9-2-2s.9-2 2-2h4c1.1 0 2 .9 2 2s-.9 2-2 2zm0-8h-4c-1.1 0-2-.9-2-2s.9-2 2-2h4c1.1 0 2 .9 2 2s-.9 2-2 2zM19 39h-4c-1.1 0-2-.9-2-2s.9-2 2-2h4c1.1 0 2 .9 2 2s-.9 2-2 2zm0-8h-4c-1.1 0-2-.9-2-2s.9-2 2-2h4c1.1 0 2 .9 2 2s-.9 2-2 2zm0-8h-4c-1.1 0-2-.9-2-2s.9-2 2-2h4c1.1 0 2 .9 2 2s-.9 2-2 2z"/></g><g class="prefix__st0"><path class="prefix__st1" d="M45 49H9c-2.2 0-4-1.8-4-4V9c0-2.2 1.8-4 4-4h36c2.2 0 4 1.8 4 4v36c0 2.2-1.8 4-4 4zm0-38c0-1.1-.9-2-2-2H11c-1.1 0-2 .9-2 2v32c0 1.1.9 2 2 2h32c1.1 0 2-.9 2-2V11zM27 37c-1.1 0-2-.9-2-2V25c0-1.1.9-2 2-2s2 .9 2 2v10c0 1.1-.9 2-2 2zm0-16c-1.1 0-2-.9-2-2s.9-2 2-2 2 .9 2 2-.9 2-2 2z"/></g><g class="prefix__st0"><path class="prefix__st1" d="M32.1 9.5c-7.1-1.7-15.3 1-19.9 7.7-4.8 6.9-4.1 16.4 1.7 22.4 6.9 7.3 18.6 7.3 25.8.1 5.3-5.3 6.7-13 4.1-19.5-.2-.4-.8-.6-1.1-.2L29.8 32.7c-.8.8-2.1.8-2.8 0l-7-6.9c-.8-.8-.9-2-.1-2.8.8-.9 2.1-.9 2.9-.1l5.6 5.6 12.8-12.8c1.6-1.6 4.3-1.2 5.3.8 4.6 8.6 2.9 19.9-5.1 26.9-8.5 7.6-21.6 7.4-29.7-.3-8.9-8.5-8.9-22.6-.2-31.4C17.3 5.9 25.6 3.8 33 5.6c1.5.4 2 2.2.9 3.3-.5.5-1.1.7-1.8.6z"/></g><g class="prefix__st0"><path class="prefix__st1" d="M46.9 49H7.1c-2 0-2.1-.3-2.1-2.2.5-1 .6-1.3 1-2.1 4.3-9.1 14.5-28.4 18.9-37.6.7-1.4.9-2.1 2.1-2.1s1.4.7 2.1 2.1c4.4 9.3 14.5 28.6 18.8 37.7.4.8 1.1 1.6 1 2.1.1 1.4 0 2.1-2 2.1zm-4.6-6.7c-2.8-5.8-11.2-22.1-14-28-.4-.9-.5-1.3-1.3-1.3s-.9.4-1.3 1.3c-2.8 5.9-11.3 22.1-14 27.9-.2.5-.3.7-.6 1.4 0 1.2.1 1.4 1.3 1.4h29.3c1.3 0 1.4-.4 1.3-1.3 0-.4-.4-.8-.7-1.4zM27 41c-1.1 0-2-.9-2-2v-8c0-1.1.9-2 2-2s2 .9 2 2v8c0 1.1-.9 2-2 2zm0-16c-1.1 0-2-.9-2-2s.9-2 2-2 2 .9 2 2-.9 2-2 2z"/></g><g class="prefix__st0"><path class="prefix__st1" d="M48.4 14.1L19 42.5c-.7.7-1.9.7-2.7 0L5.6 32.2c-.7-.7-.7-1.9 0-2.6s1.9-.7 2.7 0l9.4 9 28.1-27.1c.7-.7 1.9-.7 2.7 0 .7.8.7 1.9-.1 2.6z"/></g><g class="prefix__st0"><path class="prefix__st1" d="M45.5 47.5h-36c-2.2 0-4-1.8-4-4v-32c0-2.2 1.8-4 4-4h36c2.2 0 4 1.8 4 4v32c0 2.2-1.8 4-4 4zm0-34c0-1.1-.9-2-2-2h-32c-1.1 0-2 .9-2 2v28c0 1.1.9 2 2 2h32c1.1 0 2-.9 2-2v-28zm-5.3 23.4l-4.7-4.7-4.2 4.3-.4.4c-.4.4-.9.6-1.4.5-.5 0-1-.2-1.4-.5l-.4-.4-6.2-6.4-6.7 6.7c-.7.8-2 .8-2.7 0-.7-.7-.7-2 0-2.7l7.6-7.8c.1-.1.2-.3.4-.4.4-.4.9-.6 1.4-.5.5 0 1 .2 1.4.5.1.1.3.2.4.4l6.2 6.3 4.1-4.3.4-.4c.4-.4.9-.6 1.4-.5.5 0 1 .2 1.4.5l.4.4 5.6 5.7c.7.7.7 2 0 2.7-.6 1-1.8 1-2.6.2zm-6.7-15.4c-1.1 0-2-.9-2-2s.9-2 2-2 2 .9 2 2-.9 2-2 2z"/></g><g class="prefix__st0"><path d="M29 37c.5 0 1-.2 1.4-.5.1-.1.2-.3.4-.4l4.2-4.3 4.7 4.7c.7.8 2 .8 2.7 0 .7-.7.7-2 0-2.7L36.9 28l-.5-.5c-.4-.3-.9-.5-1.4-.5s-1 .2-1.4.5c-.1.1-.3.3-.4.5L29 32.3 23.7 27l1.9 7.3 1.6 1.7c.1.1.2.3.4.4.4.4.9.6 1.4.6zm6-18c0-1.1-.9-2-2-2s-2 .9-2 2 .9 2 2 2 2-.9 2-2zM45 9H18.6l1 4H43c1.1 0 2 .9 2 2v26c0 1.1-.9 2-2 2H27.4l1 4H45c2.2 0 4-1.8 4-4V13c0-2.2-1.8-4-4-4zM11.6 36.4c.7.8 2 .8 2.7 0l3.8-3.8-1.2-4.2-5.3 5.3c-.8.8-.8 2 0 2.7zM11 41c-1.1 0-2-.9-2-2V13c0-1.1.9-2 2-2h.9l-1.1-4H9c-2.2 0-4 1.8-4 4v30c0 2.2 1.8 4 4 4h12.6l-1.1-4H11z"/></g><path d="M30.7 36l4.3-4.3 4.7 4.7c1.1 1.1 3.1.6 3.4-1.4 0-.4-.1-.8-.4-1l-6-6c-1.9-1.7-3.4 0-3.4 0L29 32.3l-5.1-5.1h-.1l1.9 7.1 1.6 1.6c1.7 1.9 3.4.1 3.4.1zm16-27H18.9c-.2 0-.3.2-.3.3l.9 3.5c0 .1.1.2.3.2h24.9c.1 0 .3.1.3.3v29.5c0 .1-.1.3-.3.3H27.6c-.1 0-.2.1-.1.2l1 3.7c0 .1.1.1.1.1h18.2c1.3 0 2.3-1 2.3-2.3V11.3C49 10 48 9 46.7 9zM35 19c0-1.1-.9-2-2-2s-2 .9-2 2 .9 2 2 2 2-.9 2-2zM11.4 36.2c.7 1 2.1 1.1 2.9.2l3.7-3.7v-.1l-1.2-4.1s-.1-.1-.1 0l-5.1 5.1c-.6.7-.8 1.8-.2 2.6zm9.1 5c0-.1-.1-.2-.3-.2H11c-1.1 0-2-.9-2-2V13.4c0-1.3 1.1-2.4 2.4-2.4.2 0 .4-.2.4-.5l-.9-3.3c0-.2-.2-.3-.4-.3H9c-2.2 0-4 1.8-4 4v30c0 2.2 1.8 4 4 4h12.2c.2 0 .3-.2.3-.4l-1-3.3z" fill-rule="evenodd" clip-rule="evenodd"/></svg>