<svg fill="#fff" height="512" width="512" xmlns="http://www.w3.org/2000/svg"><path d="M256 117c-76.645 0-139 62.355-139 139s62.355 139 139 139 139-62.355 139-139-62.355-139-139-139zm0 248c-60.103 0-109-48.897-109-109s48.897-109 109-109 109 48.897 109 109-48.897 109-109 109zM256 81.643c8.284 0 15-6.716 15-15V15c0-8.284-6.716-15-15-15s-15 6.716-15 15v51.643c0 8.284 6.716 15 15 15zM497 241h-51.643c-8.284 0-15 6.716-15 15s6.716 15 15 15H497c8.284 0 15-6.716 15-15s-6.716-15-15-15zM256 430.357c-8.284 0-15 6.716-15 15V497c0 8.284 6.716 15 15 15s15-6.716 15-15v-51.643c0-8.284-6.716-15-15-15zM81.643 256c0-8.284-6.716-15-15-15H15c-8.284 0-15 6.716-15 15s6.716 15 15 15h51.643c8.284 0 15-6.716 15-15zM389.896 137.104c3.839 0 7.678-1.464 10.606-4.394l36.517-36.517c5.858-5.858 5.858-15.355 0-21.213-5.857-5.858-15.355-5.858-21.213 0l-36.517 36.517c-5.858 5.858-5.858 15.355 0 21.213a14.953 14.953 0 0010.607 4.394zM400.502 379.29c-5.857-5.857-15.355-5.857-21.213 0-5.858 5.858-5.858 15.355 0 21.213l36.518 36.517c2.929 2.929 6.768 4.393 10.606 4.393s7.678-1.465 10.606-4.394c5.858-5.858 5.858-15.355 0-21.213zM111.497 379.289L74.98 415.806c-5.858 5.858-5.858 15.355 0 21.213 2.929 2.929 6.768 4.394 10.606 4.394s7.678-1.464 10.606-4.394l36.517-36.517c5.858-5.858 5.858-15.355 0-21.213-5.856-5.858-15.355-5.858-21.212 0zM111.498 132.71c2.929 2.929 6.768 4.394 10.606 4.394s7.678-1.464 10.606-4.394c5.858-5.858 5.858-15.355 0-21.213L96.193 74.98c-5.857-5.858-15.355-5.858-21.213 0s-5.858 15.355 0 21.213zM322.912 94.993a14.96 14.96 0 005.751 1.152c5.879 0 11.46-3.479 13.857-9.248l19.818-47.688c3.179-7.65-.445-16.429-8.095-19.608-7.649-3.178-16.428.444-19.608 8.095l-19.818 47.688c-3.178 7.651.446 16.43 8.095 19.609zM484.303 334.636l-47.688-19.818c-7.651-3.179-16.429.444-19.608 8.095-3.179 7.65.445 16.429 8.095 19.608l47.688 19.818a14.96 14.96 0 005.751 1.152c5.879 0 11.46-3.479 13.857-9.248 3.179-7.649-.445-16.428-8.095-19.607zM189.088 417.007c-7.651-3.178-16.429.444-19.608 8.095l-19.818 47.688c-3.179 7.65.445 16.429 8.095 19.608a14.96 14.96 0 005.751 1.152c5.879 0 11.46-3.479 13.857-9.248l19.818-47.688c3.178-7.649-.446-16.428-8.095-19.607zM27.697 177.364l47.688 19.818a14.96 14.96 0 005.751 1.152c5.879 0 11.46-3.479 13.857-9.248 3.179-7.65-.445-16.429-8.095-19.608L39.21 149.661c-7.65-3.177-16.429.445-19.608 8.095s.445 16.429 8.095 19.608zM417.163 189.465c2.389 5.785 7.979 9.28 13.871 9.28 1.907 0 3.846-.366 5.718-1.139l47.734-19.707c7.657-3.161 11.303-11.931 8.142-19.589-3.162-7.658-11.934-11.302-19.589-8.141l-47.734 19.707c-7.658 3.162-11.303 11.932-8.142 19.589zM342.124 425.304c-3.161-7.658-11.933-11.301-19.589-8.141-7.658 3.161-11.303 11.931-8.142 19.589l19.707 47.735c2.389 5.785 7.979 9.28 13.871 9.28 1.907 0 3.846-.366 5.718-1.139 7.658-3.161 11.303-11.932 8.142-19.589zM94.837 322.535c-3.161-7.657-11.929-11.304-19.589-8.141l-47.735 19.707c-7.657 3.161-11.303 11.931-8.142 19.589 2.389 5.785 7.978 9.28 13.871 9.28 1.906 0 3.846-.366 5.718-1.139l47.735-19.707c7.658-3.162 11.303-11.932 8.142-19.589zM169.876 86.696c2.389 5.785 7.979 9.28 13.871 9.28 1.907 0 3.846-.366 5.718-1.139 7.658-3.161 11.303-11.931 8.142-19.589L177.9 27.513c-3.162-7.658-11.934-11.302-19.589-8.141-7.658 3.161-11.303 11.932-8.142 19.589z"/></svg>