<svg width="100" height="100" xmlns="http://www.w3.org/2000/svg">

 <g>
  <title>Layer 1</title>
  <ellipse id="svg_1" cy="0.46179" cx="0.38487" stroke="#ffffff" fill="none"/>
  <ellipse stroke="#ffffff" stroke-width="4" ry="47.90631" rx="47.90631" id="svg_2" cy="50.07692" cx="50" fill="none"/>
  <text transform="matrix(0.474921 0 0 0.474921 23.1657 1.41158)" xml:space="preserve" text-anchor="start" font-family="sans-serif" font-size="40" id="svg_3" y="45.47039" x="45.70074" stroke-width="0" fill="#ffffff">0</text>
  <text transform="matrix(0.474921 0 0 0.474921 20.2426 1.27269)" xml:space="preserve" text-anchor="start" font-family="sans-serif" font-size="40" id="svg_5" y="187.76562" x="40.87477" stroke-width="0" fill="#ffffff">12</text>
  <text transform="matrix(0.474921 0 0 0.474921 59.7809 -39.0498)" xml:space="preserve" text-anchor="start" font-family="sans-serif" font-size="40" id="svg_6" y="200.51755" x="44.91844" stroke-width="0" fill="#ffffff">6</text>
  <text transform="matrix(0.474921 0 0 0.474921 59.9002 -39.0498)" xml:space="preserve" text-anchor="start" font-family="sans-serif" font-size="40" id="svg_7" y="200.51755" x="-110.85774" stroke-width="0" fill="#ffffff">18</text>
  <line stroke-width="4" id="svg_9" y2="8.13013" x2="50.1859" y1="3.97346" x1="50.1859" stroke="#ffffff" fill="none"/>
  <line stroke-width="4" id="svg_12" y2="96.03836" x2="50.1859" y1="91.88168" x1="50.1859" stroke="#ffffff" fill="none"/>
  <line transform="rotate(90 6.0929 49.5892)" stroke-width="4" id="svg_13" y2="51.66758" x2="6.09289" y1="47.5109" x1="6.09289" stroke="#ffffff" fill="none"/>
  <line transform="rotate(90 93.9901 49.5892)" stroke-width="4" id="svg_14" y2="51.66758" x2="93.99013" y1="47.5109" x1="93.99013" stroke="#ffffff" fill="none"/>
 </g>
</svg>