<svg fill="#fff" height="512" viewBox="0 0 511.998 511.998" width="512" xmlns="http://www.w3.org/2000/svg"><g clip-rule="evenodd" fill-rule="evenodd"><path d="M457.922 150.376c-9.546-16.338-19.751-31.784-28.735-43.495-13.243-17.264-21.065-23.383-29.891-23.383-8.367 0-15.171 5.86-22.813 14.659-5.627 6.479-12.334 15.463-19.395 25.977-10.119 15.067-19.836 31.499-28.143 47.443a1019.118 1019.118 0 00-23.371-42.293c-19.247-32.938-39.773-64.018-57.8-87.517C218.211 3.228 207.096 0 198.999 0s-19.212 3.228-48.777 41.768c-18.026 23.499-38.553 54.579-57.799 87.517-23.129 39.581-76.924 138.227-76.924 199.214 0 101.183 82.318 183.5 183.5 183.5 94.936 0 173.261-72.468 182.571-164.991a97.592 97.592 0 0017.727 1.634c53.597 0 97.202-43.604 97.202-97.202 0-30.494-24.169-76.409-38.577-101.064zM198.999 481.998c-84.64 0-153.5-68.859-153.5-153.5 0-35.731 25.593-101.728 68.462-176.539 38.265-66.775 72.381-109.712 85.038-120.3 12.657 10.588 46.772 53.524 85.037 120.3 42.869 74.812 68.463 140.808 68.463 176.539 0 84.641-68.86 153.5-153.5 153.5zm200.298-163.357a67.278 67.278 0 01-17.44-2.292c-3.305-33.058-18.968-74.148-36.089-110.795 16.68-37.25 41.428-73.956 53.514-87.961 7.635 8.798 21.154 27.339 36.191 53.925 19.428 34.348 31.026 64.225 31.026 79.922 0 37.054-30.147 67.201-67.202 67.201z"/><path d="M240.182 257.167c-7.175-4.145-16.348-1.684-20.49 5.49l-67.366 116.682c-4.142 7.175-1.684 16.349 5.49 20.49a14.93 14.93 0 007.486 2.013c5.184 0 10.226-2.691 13.004-7.503l67.366-116.682c4.142-7.175 1.684-16.348-5.49-20.49zM161.5 286.998c0-8.262-6.738-15-15-15s-15 6.739-15 15c0 8.262 6.739 15 15 15 8.261.001 15-6.738 15-15zm85 70c-8.262 0-15 6.738-15 15s6.739 15 15 15c8.262 0 15-6.739 15-15 0-8.262-6.739-15-15-15z"/></g></svg>